<svg xmlns="http://www.w3.org/2000/svg" xmlns:cc="http://creativecommons.org/ns#" xmlns:dc="http://purl.org/dc/elements/1.1/" xmlns:rdf="http://www.w3.org/1999/02/22-rdf-syntax-ns#" enable-background="new 0 0 512 512" version="1.1" viewBox="0 0 512 512" xml:space="preserve">
<g class="base"><path d="m412.52 54.726v-24.726c0-16.542-13.458-30-30-30h-224c-5.522 0-10 4.477-10 10v434h-63.516c-31.981 0-58 26.019-58 58 0 5.522 4.478 10 10 10h283.03c5.522 0 10-4.478 10-10 0-31.981-26.019-58-58-58h-63.517v-234c0-5.523-4.478-10-10-10s-10 4.477-10 10v234h-20v-424h20v102c0 5.523 4.478 10 10 10s10-4.477 10-10v-102h174c5.514 0 10 4.486 10 10v24.726" enable-background="new 0 0 512 512"/><path d="m198.52 464h73.517c17.494 0 32.265 11.882 36.665 28h-260.36c4.4-16.118 19.171-28 36.665-28h73.518z" enable-background="new 0 0 512 512" fill="#fff"/><path d="m205.59 158.93c-1.86-1.86-4.44-2.93-7.07-2.93s-5.21 1.07-7.069 2.93c-1.86 1.86-2.931 4.44-2.931 7.07s1.07 5.21 2.931 7.07c1.859 1.86 4.439 2.93 7.069 2.93s5.21-1.07 7.07-2.93 2.93-4.44 2.93-7.07-1.069-5.21-2.93-7.07z"/></g>
<g class="righthand"><path xmlns="http://www.w3.org/2000/svg" stroke-width=".95167" d="m412.99 185.42c4.52-9.3276 23.436 19.454 40.412 36.436 30.127 30.137 30.865 30.967 30.865 34.645 0 6.6235-7.3016 11.488-12.942 8.6218-1.2328-0.62641-14.982-13.832-30.554-29.345l-28.312-28.206"/></g><g class="rightleg"><path xmlns="http://www.w3.org/2000/svg" d="m404.84 316.9 43.517 45.43c34.848 36.379 35.904 37.945 35.904 41.834 0 5.1809-4.3724 9.4363-9.6957 9.4363-3.3615 0-5.0749-1.5496-37.356-33.784-18.608-18.581-34.235-34.411-34.739-34.411" stroke-width=".95167"/></g><g class="leftleg"><path xmlns="http://www.w3.org/2000/svg" d="m402.47 345.4c-0.50423 0-16.151 15.83-34.759 34.411-32.077 32.031-34.012 33.784-37.298 33.784-2.3066 0-4.4093-0.79454-6.2892-2.3764-3.3658-2.8321-4.3513-6.0318-2.9849-9.6914 0.55098-1.4757 16.845-20.952 36.641-40.4l47.059-46.233" stroke-width=".95167"/></g><g class="body"><path xmlns="http://www.w3.org/2000/svg" d="m393.42 267.72c0-32.829 12.195-75.258-3.2795-81.684m22.843-0.61957-0.53038 82.572-9.937 77.91" stroke-width=".95167"/><path xmlns="http://www.w3.org/2000/svg" d="m388.14 186.04c-2-4 14.375-12.04 26.843-2.6196-1.3986 46.67-0.16291 98.496-2.4684 146.2-0.10686 0.0495-7.9508-1.7978-10.044-0.21442-2.0937 1.5834-9.9869-1.535-9.9869-1.535-2.5086-38.994-1.4595-85.889-4.3436-141.83z" stroke-width=".95167"/></g><g class="lefthand"><path xmlns="http://www.w3.org/2000/svg" d="m414.99 187.42c7.8854-12.147-62.936 62.477-82.668 78.221 0 0-15.223 8.8055-12.957-11.047l68.782-72.555" stroke-width=".95167"/></g><g xmlns="http://www.w3.org/2000/svg" class="head" transform="translate(-.4713 -3.8658)"><path d="m380.61 189.91c-2.4466 0-14.648-6.5198-20.554-10.983-11.825-8.9364-21.78-24.215-25.333-38.881-2.2288-9.1999-2.0574-23.781 0.39047-33.204 3.2119-12.365 8.7404-21.779 18.631-31.724 7.4094-7.4499 9.9111-9.2933 17.644-13.001 11.604-5.5633 19.133-7.3444 31.046-7.3444 23.993 0 44.928 11.419 58.144 31.715 21.384 32.84 11.174 76.437-22.709 96.964-3.2084 1.9437-7.816 4.268-10.239 5.1651-2.423 0.89715-4.6006 1.7859-4.839 1.9751" stroke-width=".95167"/><path d="m388.43 176.52c-1.889 0.10163-11.58-4.4266-16.325-7.6275-9.5005-6.4096-17.82-17.793-21.171-28.97-2.1024-7.0107-2.5743-18.275-1.0752-25.653 1.9675-9.6803 5.8457-17.178 13.07-25.266 5.4118-6.0592 7.2671-7.5861 13.084-10.769 8.7284-4.7765 14.468-6.4638 23.665-6.9576 18.525-0.9947 35.162 6.954 46.207 22.077 17.872 24.469 11.796 58.553-13.514 75.806-2.3966 1.6339-5.8577 3.6193-7.6914 4.4123-1.8336 0.7931 7.6914-0.41229-19.789 4.9083" fill="#fff" stroke-width=".73584"/><g>
	<g>
		<path d="m422.32 134.43c-10.919-10.918-28.682-10.916-39.599 0-3.905 3.905-3.905 10.237 0 14.143 3.906 3.905 10.236 3.905 14.143 0 3.119-3.119 8.194-3.12 11.313 0 1.954 1.953 4.512 2.929 7.072 2.929s5.118-0.976 7.071-2.929c3.905-3.905 3.905-10.237 0-14.143z"/>
	</g>
</g></g></svg>